<svg width="16" height="16" viewBox="0 0 16 16" fill="none" xmlns="http://www.w3.org/2000/svg">
<path d="M6.66891 8.00006L0.275637 1.60679C-0.0919577 1.23919 -0.0918004 0.643279 0.275637 0.275696C0.643232 -0.0918987 1.23915 -0.0918987 1.60673 0.275696L8 6.66897L14.3933 0.275696C14.7609 -0.0918987 15.3568 -0.0918987 15.7244 0.275696C16.0919 0.643291 16.092 1.2392 15.7244 1.60679L9.33109 8.00006L15.7244 14.3933C16.0918 14.7609 16.0918 15.3568 15.7244 15.7244C15.3568 16.0919 14.7609 16.0919 14.3933 15.7244L8 9.33115L1.60673 15.7244C1.23913 16.0919 0.64322 16.0919 0.275637 15.7244C-0.0918004 15.3568 -0.0918004 14.7609 0.275637 14.3933L6.66891 8.00006Z" fill="black"/>
</svg>
