<svg width="20" height="16" viewBox="0 0 20 16" fill="none" xmlns="http://www.w3.org/2000/svg">
<path d="M1.21951 0C0.545949 0 0 0.559598 0 1.25C0 1.9404 0.545949 2.5 1.21951 2.5H18.7805C19.4541 2.5 20 1.9404 20 1.25C20 0.559598 19.4541 0 18.7805 0H1.21951ZM1.21951 6.75C0.545949 6.75 0 7.3096 0 8C0 8.6904 0.545949 9.25 1.21951 9.25H18.7805C19.4541 9.25 20 8.6904 20 8C20 7.3096 19.4541 6.75 18.7805 6.75H1.21951ZM1.21951 13.5C0.545949 13.5 0 14.0596 0 14.75C0 15.4404 0.545949 16 1.21951 16H18.7805C19.4541 16 20 15.4404 20 14.75C20 14.0596 19.4541 13.5 18.7805 13.5H1.21951Z" fill="black"/>
</svg>
